# xmcd
#
# Track frame offsets:
#	150
#	22083
#	41023
#	58680
#	65529
#	85722
#	105113
#	128062
#	147996
#	156371
#	174604
#	178106
#	197067
#	213640
#
# Disc length: 3077 seconds
#
# Revision: 1
# Processed by: cddbd v1.5.2PL0 Copyright (c) Steve Scherf et al.
# Submitted via: audiograbber 1.83.01
#
DISCID=c80c030e
DTITLE=Letzte Instanz - Im Auge des Sturms
DYEAR=2014
DGENRE=Folk-Rock
TTITLE0=Alles anders
TTITLE1=Ganz egal
TTITLE2=Traum im Traum
TTITLE3=Deuxieme mouvement
TTITLE4=Das letzte Mal
TTITLE5=Der Panther
TTITLE6=Im Auge des Sturms
TTITLE7=Koma
TTITLE8=C3H5
TTITLE9=Nein!
TTITLE10=Verweht
TTITLE11=Die Zeit
TTITLE12=Opus III
TTITLE13=Zusammen
EXTD=
EXTT0=
EXTT1=
EXTT2=
EXTT3=
EXTT4=
EXTT5=
EXTT6=
EXTT7=
EXTT8=
EXTT9=
EXTT10=
EXTT11=
EXTT12=
EXTT13=
PLAYORDER=
